<?xml version="1.0" encoding="UTF-8" standalone="no"?>
<!-- Created with Inkscape (http://www.inkscape.org/) -->

<svg
   width="150mm"
   height="139.746mm"
   viewBox="0 0 150 139.746"
   version="1.1"
   id="svg1362"
   xmlns:xlink="http://www.w3.org/1999/xlink"
   xmlns="http://www.w3.org/2000/svg"
   xmlns:svg="http://www.w3.org/2000/svg">
  <defs
     id="defs1359">
    <linearGradient
       xlink:href="#linearGradient15888"
       id="linearGradient71796"
       x1="499.2088"
       y1="-180.97667"
       x2="837.6795"
       y2="157.49403"
       gradientUnits="userSpaceOnUse"
       gradientTransform="translate(36.643702,7.2311002)" />
    <linearGradient
       id="linearGradient15888">
      <stop
         style="stop-color:#0044aa;stop-opacity:1"
         offset="0"
         id="stop15884" />
      <stop
         style="stop-color:#0066ff;stop-opacity:1"
         offset="0.48965836"
         id="stop33577" />
      <stop
         style="stop-color:#0044aa;stop-opacity:1"
         offset="1"
         id="stop15886" />
    </linearGradient>
    <linearGradient
       xlink:href="#linearGradient80891"
       id="linearGradient80893"
       x1="499.2088"
       y1="-180.97667"
       x2="837.6795"
       y2="157.49403"
       gradientUnits="userSpaceOnUse"
       gradientTransform="translate(36.643702,7.2311002)" />
    <linearGradient
       id="linearGradient80891">
      <stop
         style="stop-color:#03acd8;stop-opacity:1"
         offset="0"
         id="stop80887" />
      <stop
         style="stop-color:#13bbe7;stop-opacity:1;"
         offset="0.56141877"
         id="stop81471" />
      <stop
         style="stop-color:#03acd8;stop-opacity:1"
         offset="1"
         id="stop80889" />
    </linearGradient>
    <linearGradient
       xlink:href="#linearGradient15888"
       id="linearGradient15890"
       x1="507.20264"
       y1="310.40143"
       x2="507.20264"
       y2="562.23956"
       gradientUnits="userSpaceOnUse"
       gradientTransform="translate(-5.20215,61.67881)" />
  </defs>
  <g
     id="layer1">
    <g
       id="g1289"
       transform="matrix(0.2864207,0,0,0.2864207,-68.210363,-73.337349)">
      <rect
         style="fill:url(#linearGradient71796);fill-opacity:1;stroke:url(#linearGradient80893);stroke-width:13.0583;stroke-miterlimit:4;stroke-dasharray:none;stroke-opacity:1;stop-color:#000000"
         id="rect55135"
         width="331.94156"
         height="331.94156"
         x="542.38165"
         y="-167.21643"
         transform="rotate(45)" />
      <text
         xml:space="preserve"
         style="font-style:normal;font-variant:normal;font-weight:normal;font-stretch:normal;font-size:51.9097px;line-height:1.25;font-family:Silkscreen;-inkscape-font-specification:Silkscreen;fill:#29d0fc;fill-opacity:1;stroke-width:2.78087"
         x="666.39532"
         y="515.44934"
         id="text36725"><tspan
           id="tspan36723"
           x="666.39532"
           y="515.44934"
           style="fill:#29d0fc;fill-opacity:1;stroke-width:2.78087">?</tspan></text>
      <path
         id="path47960"
         style="color:#000000;font-weight:bold;font-size:109.722px;font-family:Silkscreen;-inkscape-font-specification:'Silkscreen Bold';text-align:center;letter-spacing:-5.78px;text-anchor:middle;fill:#29d0fc;fill-opacity:1;stroke:none;stroke-width:13.0583;-inkscape-stroke:none"
         d="m 313.98926,365.55151 -4,4 v 9.06055 h -9.0625 l -4,4 v 52.24609 h 13.0625 v 13.0625 h 6.52929 45.71485 l 4,-4 v -9.0625 h 9.0625 l 4,-4 v -39.18359 h -4 v -0.004 h 4 v -26.11914 z m 72.59375,0 -4,4 v 65.30664 h 13.06054 v 13.0625 h 6.5293 45.7168 l 4,-4 v -9.0625 h 9.0625 l 4,-4 v -65.30664 h -39.1836 v 4 h -0.004 v -4 z m 85.65429,0 -4,4 v 78.36914 h 65.30664 l 4,-4 v -26.12109 h -4 v -0.004 h 4 v -26.12109 h -4 v -0.004 h 4 v -6.52929 -19.58985 z m 85.6543,0 -4,4 v 9.06055 h -9.0625 l -4,4 v 26.12109 h 13.0625 v 9.06641 h -9.0625 l -4,4 v 26.12109 h 6.5293 58.77734 l 4,-4 v -9.0625 h 9.0625 l 4,-4 v -26.12109 h -13.0625 v -9.06641 h 9.0625 l 4,-4 v -26.11914 z m 85.6543,0 -4,4 v 9.06055 h -9.06055 l -4,4 v 26.12109 h 13.06055 v 9.06641 h -9.06055 l -4,4 v 26.12109 h 6.5293 58.77734 l 4,-4 v -9.0625 h 9.0625 l 4,-4 v -26.12109 h -13.0625 v -9.06641 h 9.0625 l 4,-4 v -26.11914 z m -303.43555,30.11914 h 0.004 v 0.004 h -0.004 z m 53.00195,63.14454 -4,4 v 26.11914 h 13.0625 v 52.25 h 6.5293 32.6543 l 4,-4 v -48.25 h 9.0625 l 4,-4 v -26.11914 z m 72.59375,0 -4,4 v 78.36914 h 6.5293 32.65234 v -4 h 0.004 v 4 h 39.18359 l 4,-4 v -78.36914 h -39.18359 v 4 h -0.004 v -4 z m 85.6543,0 -4,4 v 78.36914 h 65.30664 l 4,-4 v -26.1211 h -4 v -0.004 h 4 v -26.1211 h -4 v -0.004 h 4 v -6.5293 -19.58984 z m -309.21289,93.26367 -4,4 V 634.448 h 6.5293 32.65429 l 4,-4 v -9.0625 h 9.06446 v 13.0625 h 39.18359 l 4,-4 v -78.36914 h -39.18359 l -4,4 v 9.06054 h -9.06446 v -13.06054 z m 98.7168,0 -4,4 v 65.30664 h 13.0625 v 13.0625 h 6.52929 45.71485 v -4 h 4 v -9.0625 h 9.0625 l 4,-4 v -65.30664 h -39.18164 v 4 h -0.004 v -4 z m 85.65625,0 -4,4 V 634.448 h 6.52734 32.6543 l 4,-4 v -22.125 h 9.0664 v 26.125 h 39.18164 l 4,-4 v -78.36914 h -39.18164 l -4,4 v 9.06054 h -9.0664 v -13.06054 z m 98.71679,0 -4,4 V 634.448 h 6.5293 58.77734 l 4,-4 v -9.0625 h 9.0625 l 4,-4 v -26.1211 h -4 v -0.004 h 4 v -26.1211 h -13.0625 v -13.06054 z m 85.6543,0 -4,4 V 634.448 h 65.30664 l 4,-4 v -26.1211 h -4 v -0.004 h 4 v -26.1211 h -4 v -0.004 h 4 v -6.5293 -19.58984 z m 72.5918,0 -4,4 V 634.448 h 6.52929 32.6543 v -4 h 0.004 v 4 h 39.18164 l 4,-4 v -26.1211 h -13.06055 v -9.0664 h 9.06055 l 4,-4 v -26.1211 h -13.06055 v -13.06054 z" />
      <text
         xml:space="preserve"
         style="font-style:normal;font-variant:normal;font-weight:bold;font-stretch:normal;font-size:109.722px;line-height:0.85;font-family:Silkscreen;-inkscape-font-specification:'Silkscreen Bold';text-align:center;letter-spacing:-5.78px;text-anchor:middle;fill:url(#linearGradient15890);fill-opacity:1;stroke-width:5.87794"
         x="502.00043"
         y="437.39093"
         id="text2932"><tspan
           x="502.00043"
           y="437.39093"
           id="tspan2934"
           style="font-style:normal;font-variant:normal;font-weight:bold;font-stretch:normal;font-family:Silkscreen;-inkscape-font-specification:'Silkscreen Bold';text-align:center;text-anchor:middle;fill:url(#linearGradient15890);fill-opacity:1;stroke-width:5.87794">GUESS</tspan><tspan
           x="502.00043"
           y="530.65466"
           id="tspan2936"
           style="font-style:normal;font-variant:normal;font-weight:bold;font-stretch:normal;font-family:Silkscreen;-inkscape-font-specification:'Silkscreen Bold';text-align:center;text-anchor:middle;fill:url(#linearGradient15890);fill-opacity:1;stroke-width:5.87794">THE</tspan><tspan
           x="499.11044"
           y="623.91833"
           style="font-style:normal;font-variant:normal;font-weight:bold;font-stretch:normal;font-family:Silkscreen;-inkscape-font-specification:'Silkscreen Bold';text-align:center;text-anchor:middle;fill:url(#linearGradient15890);fill-opacity:1;stroke-width:5.87794"
           id="tspan9752">NUMBER</tspan></text>
      <text
         xml:space="preserve"
         style="font-style:normal;font-variant:normal;font-weight:normal;font-stretch:normal;font-size:51.9097px;line-height:1.25;font-family:Silkscreen;-inkscape-font-specification:Silkscreen;fill:#29d0fc;fill-opacity:1;stroke-width:2.78087"
         x="315.79437"
         y="515.44934"
         id="text61149"><tspan
           id="tspan61147"
           x="315.79437"
           y="515.44934"
           style="fill:#29d0fc;fill-opacity:1;stroke-width:2.78087">?</tspan></text>
    </g>
  </g>
</svg>
